<svg version="1.2" xmlns="http://www.w3.org/2000/svg" viewBox="0 0 22 31" width="22" height="31"><style>.a{fill:#e74c3c}</style><path fill-rule="evenodd" class="a" d="m21.9 17.3l-2.5-3.8c-0.1-0.2-0.3-0.3-0.5-0.3-0.3 0-0.5 0.1-0.6 0.3l-2.5 3.8c-0.1 0.2-0.1 0.5 0 0.7 0.1 0.2 0.3 0.3 0.5 0.3h1.3c-0.6 2.3-2.8 4.1-5.1 4.6v-14.4h2c0.5 0 1-0.5 1-1.1 0-0.5-0.5-1-1-1h-1c0.7-0.6 1.1-1.6 1.1-2.7 0-2-1.6-3.7-3.6-3.7-2 0-3.6 1.7-3.6 3.7 0 1.1 0.4 2.1 1.1 2.7h-1c-0.5 0-1 0.5-1 1 0 0.6 0.5 1.1 1 1.1h2v14.4c-2.3-0.5-4.5-2.3-5.1-4.6h1.3c0.2 0 0.4-0.1 0.5-0.3 0.1-0.2 0.1-0.5 0-0.7l-2.5-3.8c-0.1-0.2-0.3-0.3-0.6-0.3-0.2 0-0.4 0.1-0.5 0.3l-2.5 3.8c-0.1 0.2-0.1 0.5 0 0.7 0.1 0.2 0.3 0.3 0.5 0.3h1.4c0.5 3.5 3.4 7.1 6.8 8.3l-0.3 0.3c-0.2 0.2-0.2 0.5 0 0.7l2 3.1c0.1 0.2 0.3 0.3 0.5 0.3 0.2 0 0.4-0.1 0.5-0.3l2-3.1c0.2-0.2 0.2-0.5 0-0.7l-0.3-0.3c3.4-1.2 6.3-4.8 6.8-8.3h1.4c0.2 0 0.4-0.1 0.5-0.3 0.1-0.2 0.1-0.5 0-0.7zm-10.9-15.3c0.9 0 1.6 0.8 1.6 1.7 0 0.9-0.7 1.7-1.6 1.7-0.9 0-1.6-0.8-1.6-1.7 0-0.9 0.7-1.7 1.6-1.7z"/></svg>