<svg width="180" height="54" viewBox="0 0 180 54" fill="none" xmlns="http://www.w3.org/2000/svg">
<g id="Group">
<g id="Group_2">
<path id="Vector" d="M165.666 0.000173333H14.3422C13.7906 0.000173333 13.2456 0.000173333 12.6955 0.00284C12.235 0.00550667 11.7781 0.0132533 11.3132 0.0197733C10.3031 0.0303091 9.29543 0.109075 8.29888 0.255387C7.30373 0.404884 6.33976 0.686728 5.43956 1.09139C4.54046 1.49947 3.71893 2.02973 3.00477 2.66293C2.28686 3.29436 1.68842 4.0242 1.23248 4.82439C0.775271 5.62299 0.458244 6.47876 0.292343 7.36215C0.124866 8.24442 0.0347448 9.13687 0.0227888 10.0315C0.00882972 10.4403 0.00735559 10.8504 0 11.2593V42.0783C0.00735559 42.4923 0.00882972 42.8934 0.0227888 43.3075C0.0347485 44.2021 0.12487 45.0945 0.292343 45.9767C0.457785 46.8606 0.774831 47.7169 1.23248 48.5158C1.68821 49.3134 2.28673 50.0403 3.00477 50.6682C3.71622 51.3042 4.53828 51.8348 5.43956 52.2398C6.33975 52.6455 7.30362 52.929 8.29888 53.0808C9.2956 53.226 10.3032 53.3048 11.3132 53.3166C11.7781 53.3256 12.235 53.3308 12.6955 53.3308C13.2456 53.3335 13.7906 53.3335 14.3422 53.3335H165.666C166.207 53.3335 166.756 53.3335 167.296 53.3308C167.755 53.3308 168.225 53.3256 168.683 53.3166C169.691 53.3054 170.697 53.2266 171.692 53.0808C172.69 52.928 173.657 52.6445 174.562 52.2398C175.462 51.8346 176.284 51.304 176.995 50.6682C177.711 50.0378 178.311 49.3115 178.772 48.5158C179.226 47.7163 179.54 46.8601 179.703 45.9767C179.871 45.0944 179.964 44.2022 179.982 43.3075C179.988 42.8934 179.988 42.4923 179.988 42.0783C180 41.5939 180 41.1122 180 40.6199V12.715C180 12.2267 180 11.7424 179.988 11.2593C179.988 10.8504 179.988 10.4403 179.982 10.0314C179.964 9.13674 179.871 8.24449 179.703 7.36209C179.54 6.47922 179.226 5.62351 178.772 4.82433C177.843 3.22043 176.371 1.91487 174.562 1.09127C173.657 0.687596 172.69 0.405827 171.692 0.255267C170.697 0.10831 169.691 0.029517 168.683 0.0195867C168.225 0.01308 167.755 0.00526667 167.296 0.00266667C166.756 0 166.207 0 165.666 0V0.000173333Z" fill="white"/>
<path id="Vector_2" d="M12.5733 52.1708C12.1142 52.1708 11.6662 52.1656 11.2107 52.1566C10.2671 52.1457 9.32572 52.073 8.39426 51.939C7.52572 51.8066 6.68434 51.5604 5.89787 51.2084C5.11861 50.8592 4.40786 50.4015 3.79286 49.8526C3.16895 49.3102 2.64951 48.6811 2.25514 47.9902C1.85642 47.2949 1.58049 46.5495 1.43694 45.7802C1.28193 44.9535 1.19806 44.1176 1.18606 43.2796C1.17651 42.9984 1.164 42.0619 1.164 42.0619V11.2547C1.164 11.2547 1.17732 10.3326 1.18614 10.0618C1.19763 9.22515 1.28101 8.39054 1.43556 7.56514C1.57937 6.79367 1.85552 6.04618 2.25445 5.34854C2.64737 4.65815 3.16392 4.02857 3.78407 3.48422C4.40352 2.93469 5.11654 2.47457 5.89713 2.12064C6.68179 1.76974 7.52158 1.52521 8.38837 1.39523C9.32289 1.25996 10.2675 1.18682 11.2144 1.17644L12.574 1.16016H167.427L168.802 1.17709C169.741 1.18696 170.677 1.25944 171.603 1.39393C172.478 1.52553 173.327 1.77177 174.12 2.12454C175.684 2.83782 176.957 3.96629 177.759 5.35179C178.152 6.04461 178.424 6.78601 178.566 7.55081C178.722 8.38299 178.81 9.22416 178.828 10.0676C178.832 10.4453 178.832 10.851 178.832 11.2547C178.844 11.7548 178.844 12.2308 178.844 12.7107V40.6215C178.844 41.106 178.844 41.5787 178.832 42.0554C178.832 42.4891 178.832 42.8863 178.826 43.2952C178.809 44.1236 178.723 44.9498 178.569 45.7671C178.428 46.542 178.154 47.2932 177.755 47.9942C177.358 48.6776 176.841 49.3012 176.225 49.8422C175.609 50.394 174.897 50.8545 174.116 51.2058C173.325 51.5606 172.477 51.8077 171.603 51.939C170.671 52.0737 169.73 52.1464 168.786 52.1566C168.345 52.1656 167.883 52.1708 167.434 52.1708L165.801 52.1735L12.5733 52.1708Z" fill="white"/>
</g>
<g id="&#60;Group&#62;">
<g id="&#60;Group&#62;_2">
<g id="&#60;Group&#62;_3">
<path id="&#60;Path&#62;" d="M43.7297 27.0678C43.744 25.9549 44.0396 24.8637 44.589 23.8958C45.1384 22.9278 45.9236 22.1146 46.8718 21.5317C46.2695 20.6715 45.4749 19.9635 44.5511 19.4641C43.6273 18.9647 42.5998 18.6876 41.5502 18.6548C39.3112 18.4198 37.1406 19.9945 35.9997 19.9945C34.8367 19.9945 33.08 18.6781 31.1884 18.717C29.9648 18.7566 28.7723 19.1124 27.7272 19.7498C26.682 20.3872 25.8198 21.2845 25.2245 22.3542C22.6458 26.8187 24.5692 33.3801 27.0394 36.989C28.2753 38.7561 29.7196 40.73 31.6096 40.66C33.459 40.5833 34.1497 39.4807 36.3821 39.4807C38.5938 39.4807 39.2418 40.66 41.1701 40.6155C43.1546 40.5833 44.4049 38.8405 45.5975 37.0567C46.4854 35.7975 47.1687 34.4059 47.622 32.9333C46.4691 32.4457 45.4852 31.6294 44.793 30.5864C44.1008 29.5433 43.731 28.3196 43.7297 27.0678Z" fill="black"/>
<path id="&#60;Path&#62;_2" d="M40.0875 16.2814C41.1696 14.9824 41.7026 13.3128 41.5736 11.6272C39.9204 11.8008 38.3934 12.5909 37.2968 13.84C36.7606 14.4502 36.3499 15.1601 36.0883 15.9292C35.8266 16.6982 35.7191 17.5113 35.7718 18.3219C36.5987 18.3304 37.4167 18.1512 38.1642 17.7977C38.9118 17.4443 39.5694 16.9258 40.0875 16.2814Z" fill="black"/>
</g>
</g>
<g id="Group_3">
<path id="Vector_3" d="M67.1076 36.1863H60.7964L59.2808 40.6616H56.6076L62.5855 24.1042H65.3628L71.3407 40.6616H68.6219L67.1076 36.1863ZM61.45 34.1212H66.4527L63.9866 26.8582H63.9176L61.45 34.1212Z" fill="black"/>
<path id="Vector_4" d="M84.2508 34.6264C84.2508 38.3777 82.243 40.7879 79.2131 40.7879C78.4455 40.828 77.6822 40.6512 77.0105 40.2777C76.3388 39.9042 75.7858 39.3491 75.4149 38.6759H75.3576V44.6551H72.8797V28.59H75.2782V30.5978H75.3238C75.7117 29.9278 76.274 29.3756 76.9508 28.9998C77.6277 28.624 78.3937 28.4387 79.1675 28.4637C82.2313 28.4637 84.2508 30.8855 84.2508 34.6264ZM81.704 34.6264C81.704 32.1824 80.4409 30.5756 78.5138 30.5756C76.6206 30.5756 75.3472 32.2163 75.3472 34.6264C75.3472 37.0587 76.6206 38.6876 78.5138 38.6876C80.4409 38.6876 81.704 37.0926 81.704 34.6264Z" fill="black"/>
<path id="Vector_5" d="M97.5373 34.6264C97.5373 38.3777 95.5295 40.7879 92.4996 40.7879C91.732 40.828 90.9687 40.6512 90.297 40.2777C89.6253 39.9042 89.0723 39.349 88.7014 38.6759H88.6441V44.655H86.1662V28.5899H88.5646V30.5978H88.6102C88.9981 29.9278 89.5604 29.3756 90.2373 28.9998C90.9141 28.624 91.6802 28.4387 92.454 28.4637C95.5178 28.4637 97.5373 30.8855 97.5373 34.6264ZM94.9905 34.6264C94.9905 32.1824 93.7274 30.5756 91.8003 30.5756C89.9071 30.5756 88.6337 32.2163 88.6337 34.6264C88.6337 37.0587 89.9071 38.6876 91.8003 38.6876C93.7274 38.6876 94.9905 37.0926 94.9905 34.6264H94.9905Z" fill="black"/>
<path id="Vector_6" d="M106.318 36.0482C106.502 37.6902 108.097 38.7682 110.277 38.7682C112.365 38.7682 113.868 37.6901 113.868 36.2096C113.868 34.9245 112.962 34.155 110.816 33.6276L108.67 33.1107C105.63 32.3763 104.218 30.9544 104.218 28.6471C104.218 25.7904 106.708 23.8281 110.243 23.8281C113.742 23.8281 116.14 25.7904 116.221 28.6471H113.719C113.57 26.9948 112.204 25.9974 110.208 25.9974C108.212 25.9974 106.846 27.0065 106.846 28.4753C106.846 29.6458 107.718 30.3346 109.852 30.8619L111.677 31.3099C115.074 32.1132 116.485 33.4779 116.485 35.8997C116.485 38.9974 114.018 40.9375 110.093 40.9375C106.421 40.9375 103.942 39.0429 103.782 36.0481L106.318 36.0482Z" fill="black"/>
<path id="Vector_7" d="M121.833 25.7332V28.5899H124.128V30.5522H121.833V37.2071C121.833 38.241 122.293 38.7227 123.302 38.7227C123.574 38.718 123.846 38.6989 124.117 38.6654V40.6159C123.663 40.7007 123.202 40.7391 122.74 40.7305C120.296 40.7305 119.343 39.8125 119.343 37.4714V30.5522H117.588V28.5899H119.343V25.7332H121.833Z" fill="black"/>
<path id="Vector_8" d="M125.458 34.6265C125.458 30.8284 127.695 28.4417 131.183 28.4417C134.683 28.4417 136.91 30.8283 136.91 34.6265C136.91 38.4351 134.695 40.8114 131.183 40.8114C127.673 40.8114 125.458 38.4351 125.458 34.6265ZM134.385 34.6265C134.385 32.0211 133.191 30.4833 131.183 30.4833C129.175 30.4833 127.983 32.0328 127.983 34.6265C127.983 37.2424 129.175 38.7685 131.183 38.7685C133.191 38.7685 134.385 37.2424 134.385 34.6265H134.385Z" fill="black"/>
<path id="Vector_9" d="M138.953 28.5898H141.316V30.6445H141.373C141.533 30.0028 141.909 29.4357 142.438 29.0385C142.967 28.6413 143.616 28.4383 144.277 28.4635C144.562 28.4625 144.847 28.4935 145.126 28.556V30.8737C144.765 30.7635 144.389 30.713 144.013 30.724C143.653 30.7093 143.294 30.7728 142.961 30.91C142.627 31.0472 142.328 31.2548 142.083 31.5187C141.837 31.7825 141.652 32.0963 141.539 32.4386C141.427 32.7808 141.39 33.1433 141.431 33.5013V40.6614H138.953L138.953 28.5898Z" fill="black"/>
<path id="Vector_10" d="M156.55 37.1161C156.217 39.3075 154.083 40.8114 151.352 40.8114C147.841 40.8114 145.661 38.4586 145.661 34.6838C145.661 30.8974 147.852 28.4417 151.248 28.4417C154.588 28.4417 156.688 30.7359 156.688 34.3961V35.245H148.162V35.3948C148.123 35.839 148.179 36.2866 148.325 36.7077C148.472 37.1288 148.707 37.5139 149.014 37.8373C149.321 38.1607 149.694 38.415 150.107 38.5834C150.52 38.7518 150.964 38.8304 151.41 38.814C151.995 38.8689 152.583 38.7333 153.085 38.4274C153.587 38.1214 153.977 37.6616 154.197 37.1161L156.55 37.1161ZM148.174 33.5133H154.209C154.231 33.1138 154.171 32.7141 154.031 32.3391C153.892 31.9642 153.676 31.6221 153.398 31.3344C153.12 31.0467 152.786 30.8196 152.416 30.6673C152.046 30.515 151.648 30.4409 151.248 30.4495C150.845 30.4471 150.445 30.5246 150.071 30.6776C149.698 30.8306 149.359 31.056 149.073 31.3408C148.787 31.6257 148.56 31.9643 148.406 32.3372C148.252 32.71 148.173 33.1098 148.174 33.5133V33.5133Z" fill="black"/>
</g>
<g id="Group_4">
<path id="Vector_11" d="M61.1395 11.6416C61.659 11.6043 62.1803 11.6828 62.6658 11.8714C63.1512 12.06 63.5888 12.3539 63.9469 12.7321C64.305 13.1103 64.5748 13.5632 64.7366 14.0582C64.8985 14.5532 64.9485 15.078 64.883 15.5947C64.883 18.1364 63.5093 19.5974 61.1395 19.5974H58.2658V11.6416H61.1395ZM59.5015 18.4723H61.0015C61.3727 18.4945 61.7442 18.4336 62.0889 18.2941C62.4336 18.1546 62.7429 17.94 62.9942 17.6659C63.2455 17.3918 63.4326 17.0652 63.5417 16.7097C63.6509 16.3542 63.6794 15.9788 63.6252 15.6109C63.6754 15.2445 63.644 14.8715 63.5332 14.5186C63.4224 14.1657 63.2349 13.8417 62.9841 13.5698C62.7334 13.2979 62.4256 13.0848 62.0828 12.9458C61.7401 12.8068 61.3708 12.7454 61.0015 12.7659H59.5015V18.4723Z" fill="black"/>
<path id="Vector_12" d="M66.2788 16.5925C66.241 16.1979 66.2862 15.7998 66.4113 15.4237C66.5364 15.0476 66.7387 14.7018 67.0053 14.4085C67.2719 14.1152 67.5969 13.8809 67.9593 13.7205C68.3218 13.5601 68.7138 13.4773 69.1102 13.4773C69.5065 13.4773 69.8985 13.5601 70.261 13.7205C70.6234 13.8809 70.9484 14.1152 71.215 14.4085C71.4816 14.7018 71.6839 15.0476 71.809 15.4237C71.9341 15.7998 71.9793 16.1979 71.9415 16.5925C71.98 16.9874 71.9354 17.3861 71.8106 17.7628C71.6858 18.1395 71.4836 18.4859 71.2169 18.7798C70.9503 19.0737 70.6251 19.3085 70.2623 19.4692C69.8994 19.6299 69.507 19.713 69.1102 19.713C68.7133 19.713 68.3209 19.6299 67.958 19.4692C67.5952 19.3085 67.27 19.0737 67.0034 18.7798C66.7367 18.4859 66.5345 18.1395 66.4097 17.7628C66.2849 17.3861 66.2403 16.9874 66.2788 16.5925ZM70.7228 16.5925C70.7228 15.291 70.1381 14.53 69.1121 14.53C68.0822 14.53 67.5028 15.291 67.5028 16.5925C67.5028 17.9043 68.0822 18.6595 69.1121 18.6595C70.1382 18.6595 70.7228 17.8991 70.7228 16.5925H70.7228Z" fill="black"/>
<path id="Vector_13" d="M79.4689 19.5972H78.2398L76.9989 15.1753H76.9051L75.6695 19.5972H74.452L72.7971 13.5933H73.9989L75.0744 18.1746H75.163L76.3973 13.5933H77.534L78.7684 18.1746H78.8622L79.9325 13.5933H81.1174L79.4689 19.5972Z" fill="black"/>
<path id="Vector_14" d="M82.5093 13.5932H83.6499V14.547H83.7385C83.8887 14.2045 84.142 13.9173 84.4632 13.7255C84.7843 13.5338 85.1573 13.447 85.5301 13.4773C85.8223 13.4554 86.1156 13.4994 86.3884 13.6062C86.6612 13.713 86.9064 13.8798 87.106 14.0943C87.3056 14.3087 87.4544 14.5654 87.5413 14.8451C87.6282 15.1249 87.6511 15.4206 87.6082 15.7104V19.5971H86.4233V16.008C86.4233 15.0431 86.0041 14.5633 85.1278 14.5633C84.9294 14.5541 84.7314 14.5878 84.5474 14.6623C84.3633 14.7367 84.1975 14.8501 84.0613 14.9946C83.9251 15.1391 83.8218 15.3113 83.7585 15.4995C83.6951 15.6877 83.6732 15.8873 83.6942 16.0848V19.5971H82.5093L82.5093 13.5932Z" fill="black"/>
<path id="Vector_15" d="M89.4963 11.2495H90.6812V19.5972H89.4963V11.2495Z" fill="black"/>
<path id="Vector_16" d="M92.3283 16.5926C92.2906 16.198 92.3358 15.7999 92.4609 15.4238C92.5861 15.0477 92.7884 14.7019 93.055 14.4086C93.3217 14.1152 93.6466 13.8809 94.0091 13.7205C94.3716 13.5601 94.7636 13.4773 95.16 13.4773C95.5564 13.4773 95.9484 13.5601 96.3109 13.7205C96.6734 13.8809 96.9984 14.1152 97.265 14.4086C97.5316 14.7019 97.734 15.0477 97.8591 15.4238C97.9843 15.7999 98.0294 16.198 97.9917 16.5926C98.0301 16.9876 97.9855 17.3862 97.8607 17.7629C97.7358 18.1396 97.5336 18.486 97.2669 18.7799C97.0002 19.0738 96.675 19.3086 96.3122 19.4693C95.9493 19.63 95.5569 19.713 95.16 19.713C94.7632 19.713 94.3707 19.63 94.0079 19.4693C93.645 19.3086 93.3198 19.0738 93.0531 18.7799C92.7864 18.486 92.5842 18.1396 92.4594 17.7629C92.3345 17.3862 92.2899 16.9876 92.3283 16.5926ZM96.7723 16.5926C96.7723 15.2912 96.1877 14.5301 95.1616 14.5301C94.1317 14.5301 93.5523 15.2912 93.5523 16.5926C93.5523 17.9044 94.1317 18.6596 95.1616 18.6596C96.1877 18.6596 96.7723 17.8992 96.7723 16.5926H96.7723Z" fill="black"/>
<path id="Vector_17" d="M99.2391 17.8992C99.2391 16.8184 100.044 16.1954 101.472 16.1068L103.098 16.0131V15.4949C103.098 14.8607 102.679 14.5027 101.869 14.5027C101.208 14.5027 100.75 14.7455 100.618 15.17H99.4708C99.5919 14.1387 100.562 13.4773 101.924 13.4773C103.429 13.4773 104.278 14.2266 104.278 15.4949V19.5971H103.138V18.7533H103.044C102.853 19.056 102.586 19.3027 102.269 19.4683C101.953 19.634 101.598 19.7125 101.24 19.696C100.988 19.7222 100.734 19.6953 100.493 19.6171C100.252 19.5388 100.03 19.4109 99.8411 19.2416C99.6525 19.0723 99.5015 18.8654 99.3978 18.6342C99.2942 18.4029 99.2401 18.1526 99.2391 17.8992ZM103.098 17.3861V16.8842L101.632 16.9779C100.805 17.0333 100.43 17.3145 100.43 17.8438C100.43 18.3842 100.899 18.6986 101.544 18.6986C101.733 18.7177 101.923 18.6987 102.105 18.6426C102.286 18.5864 102.454 18.4944 102.599 18.372C102.744 18.2495 102.863 18.0991 102.949 17.9298C103.035 17.7604 103.086 17.5755 103.098 17.3861Z" fill="black"/>
<path id="Vector_18" d="M105.835 16.5926C105.835 14.6955 106.811 13.4937 108.328 13.4937C108.703 13.4764 109.075 13.5663 109.401 13.7528C109.727 13.9393 109.994 14.2148 110.169 14.547H110.257V11.2495H111.442V19.5972H110.307V18.6486H110.213C110.024 18.9786 109.749 19.2506 109.416 19.4353C109.084 19.6199 108.708 19.7101 108.328 19.6961C106.8 19.6962 105.835 18.4943 105.835 16.5926ZM107.059 16.5926C107.059 17.8661 107.66 18.6324 108.664 18.6324C109.662 18.6324 110.28 17.855 110.28 16.5978C110.28 15.3465 109.656 14.5581 108.664 14.5581C107.666 14.5581 107.059 15.3296 107.059 16.5926H107.059Z" fill="black"/>
<path id="Vector_19" d="M116.345 16.5925C116.307 16.1979 116.352 15.7998 116.477 15.4237C116.602 15.0476 116.805 14.7018 117.071 14.4085C117.338 14.1152 117.663 13.8809 118.025 13.7205C118.388 13.5601 118.78 13.4773 119.176 13.4773C119.572 13.4773 119.964 13.5601 120.327 13.7205C120.689 13.8809 121.014 14.1152 121.281 14.4085C121.547 14.7018 121.75 15.0476 121.875 15.4237C122 15.7998 122.045 16.1979 122.007 16.5925C122.046 16.9874 122.001 17.3861 121.876 17.7628C121.752 18.1395 121.549 18.4859 121.283 18.7798C121.016 19.0737 120.691 19.3085 120.328 19.4692C119.965 19.6299 119.573 19.713 119.176 19.713C118.779 19.713 118.387 19.6299 118.024 19.4692C117.661 19.3085 117.336 19.0737 117.069 18.7798C116.803 18.4859 116.6 18.1395 116.475 17.7628C116.351 17.3861 116.306 16.9874 116.345 16.5925ZM120.789 16.5925C120.789 15.291 120.204 14.53 119.178 14.53C118.148 14.53 117.569 15.291 117.569 16.5925C117.569 17.9043 118.148 18.6595 119.178 18.6595C120.204 18.6595 120.789 17.8991 120.789 16.5925Z" fill="black"/>
<path id="Vector_20" d="M123.597 13.5932H124.738V14.547H124.826C124.977 14.2045 125.23 13.9173 125.551 13.7255C125.872 13.5338 126.245 13.447 126.618 13.4773C126.91 13.4554 127.203 13.4994 127.476 13.6062C127.749 13.713 127.994 13.8798 128.194 14.0943C128.393 14.3087 128.542 14.5654 128.629 14.8451C128.716 15.1249 128.739 15.4206 128.696 15.7104V19.5971H127.511V16.008C127.511 15.0431 127.092 14.5633 126.216 14.5633C126.017 14.5541 125.819 14.5878 125.635 14.6623C125.451 14.7367 125.285 14.8501 125.149 14.9946C125.013 15.1391 124.91 15.3113 124.846 15.4995C124.783 15.6877 124.761 15.8873 124.782 16.0848V19.5971H123.597V13.5932Z" fill="black"/>
<path id="Vector_21" d="M135.391 12.0986V13.6208H136.692V14.6188H135.391V17.7061C135.391 18.335 135.651 18.6103 136.24 18.6103C136.391 18.6099 136.542 18.6007 136.692 18.583V19.57C136.479 19.608 136.264 19.6283 136.048 19.6305C134.73 19.6305 134.205 19.167 134.205 18.0094V14.6188H133.252V13.6207H134.205V12.0986H135.391Z" fill="black"/>
<path id="Vector_22" d="M138.311 11.2495H139.485V14.5581H139.579C139.736 14.2124 139.997 13.9236 140.324 13.7311C140.652 13.5386 141.031 13.4519 141.41 13.4826C141.7 13.4668 141.991 13.5153 142.26 13.6247C142.53 13.7341 142.772 13.9016 142.97 14.1154C143.167 14.3292 143.315 14.5839 143.403 14.8615C143.491 15.139 143.516 15.4324 143.477 15.7209V19.5972H142.291V16.0132C142.291 15.0542 141.845 14.5685 141.007 14.5685C140.804 14.5518 140.599 14.5798 140.407 14.6505C140.215 14.7213 140.042 14.8331 139.898 14.978C139.754 15.123 139.643 15.2977 139.574 15.4899C139.504 15.6821 139.478 15.8871 139.496 16.0906V19.5972H138.311L138.311 11.2495Z" fill="black"/>
<path id="Vector_23" d="M150.386 17.9758C150.225 18.5246 149.876 18.9992 149.401 19.3167C148.925 19.6343 148.353 19.7745 147.785 19.7128C147.389 19.7233 146.996 19.6475 146.633 19.4908C146.269 19.3341 145.944 19.1002 145.681 18.8053C145.417 18.5105 145.22 18.1617 145.105 17.7833C144.989 17.4049 144.957 17.0058 145.011 16.6139C144.959 16.2207 144.991 15.8208 145.106 15.4412C145.222 15.0617 145.417 14.7113 145.68 14.4139C145.942 14.1164 146.265 13.8789 146.628 13.7173C146.99 13.5557 147.383 13.4738 147.779 13.4772C149.45 13.4772 150.458 14.6185 150.458 16.5038V16.9173H146.218V16.9837C146.2 17.204 146.227 17.4258 146.3 17.6348C146.372 17.8438 146.487 18.0354 146.637 18.1973C146.788 18.3593 146.971 18.488 147.174 18.5752C147.377 18.6624 147.596 18.7061 147.817 18.7037C148.101 18.7377 148.388 18.6867 148.642 18.557C148.896 18.4274 149.107 18.2251 149.246 17.9758L150.386 17.9758ZM146.218 16.0409H149.251C149.266 15.8394 149.238 15.637 149.17 15.4468C149.102 15.2565 148.995 15.0825 148.856 14.936C148.717 14.7895 148.549 14.6738 148.362 14.5962C148.176 14.5187 147.975 14.481 147.773 14.4856C147.568 14.483 147.365 14.5215 147.175 14.5988C146.985 14.676 146.812 14.7905 146.668 14.9355C146.523 15.0804 146.408 15.2529 146.331 15.4428C146.254 15.6326 146.216 15.836 146.218 16.0409H146.218Z" fill="black"/>
</g>
</g>
</g>
</svg>
