<svg width="64" height="64" viewBox="0 0 64 64" fill="none" xmlns="http://www.w3.org/2000/svg">
<g id="Group 24">
<circle id="Ellipse 4" cx="32" cy="32" r="32" fill="#FEF5EC"/>
<g id="Group">
<path id="Vector" d="M40.6033 40.6035C40.6033 39.6764 41.3549 38.9248 42.282 38.9248H44.8L44.7979 38.0854C44.0329 37.0665 42.8154 36.4067 41.4426 36.4067C40.148 36.4067 38.9926 36.9943 38.2238 37.9163C37.9094 38.2932 37.4406 38.5051 36.9501 38.5051H21.7181C20.5593 38.5051 19.6197 39.4447 19.6197 40.6035C19.6197 41.7622 20.5593 42.7018 21.7181 42.7018H36.9501C37.4406 42.7018 37.9094 42.9138 38.2238 43.2906C38.9926 44.2126 40.148 44.8002 41.4426 44.8002C42.8154 44.8002 44.0329 44.1405 44.7979 43.1215L44.8 42.2821H42.282C41.3549 42.2821 40.6033 41.5305 40.6033 40.6035Z" fill="#F4A45D"/>
<path id="Vector_2" d="M40.6033 35.6448V33.8884H28.8525V37.6655H36.9501C37.1972 37.6655 37.4268 37.5606 37.5791 37.378C37.7672 37.1526 37.9766 36.952 38.1965 36.7657C37.8859 36.6427 37.6656 36.341 37.6656 35.9868C37.6656 35.5231 38.0412 35.1474 38.5049 35.1474C38.9687 35.1474 39.3443 35.5231 39.3443 35.9868C39.3443 36.0015 39.3409 36.0149 39.3401 36.0292C39.74 35.8449 40.1652 35.719 40.6033 35.6448ZM30.5312 37.2458H29.6918V36.4065H30.5312V37.2458ZM30.5312 35.5671H29.6918V34.7278H30.5312V35.5671ZM35.1476 36.8261C34.6838 36.8261 34.3082 36.4505 34.3082 35.9868C34.3082 35.5231 34.6838 35.1474 35.1476 35.1474C35.6113 35.1474 35.9869 35.5231 35.9869 35.9868C35.9869 36.4505 35.6113 36.8261 35.1476 36.8261Z" fill="#F4A45D"/>
<path id="Vector_3" d="M21.0982 26.9005C21.1733 27.1355 21.2724 27.3731 21.3936 27.6081L21.5002 27.8146L20.9773 28.6938L22.2964 30.0128L23.176 29.4899L23.3829 29.5973C23.6171 29.7182 23.8546 29.8177 24.0892 29.8928L24.3108 29.9633L24.5622 30.9508H26.4276L26.679 29.9629L26.9006 29.8924C27.1352 29.8172 27.3727 29.7178 27.6069 29.5969L27.8138 29.4895L28.5251 29.9125H28.7933L30.0125 28.6938L29.4895 27.8146L29.5961 27.6081C29.7174 27.3731 29.8165 27.1355 29.8916 26.9005L29.9625 26.6789L30.9508 26.428V24.5625L29.9629 24.3116L29.892 24.09C29.8169 23.855 29.7178 23.6174 29.5966 23.3824L29.49 23.1759L30.0129 22.2967L28.6938 20.9777L27.8142 21.5006L27.6073 21.3932C27.3731 21.2723 27.1356 21.1728 26.901 21.0977L26.6794 21.0272L26.428 20.0393H24.5626L24.3112 21.0272L24.0892 21.0977C23.8546 21.1728 23.6171 21.2723 23.3829 21.3932L23.176 21.5006L22.2968 20.9777L20.9778 22.2967L21.5007 23.1759L21.3941 23.3824C21.2728 23.6174 21.1737 23.855 21.0986 24.09L21.0273 24.3116L20.0394 24.5621V26.4276L21.0273 26.6785L21.0982 26.9005ZM25.4951 22.1377C27.3492 22.1377 28.8525 23.6409 28.8525 25.495C28.8525 27.3492 27.3492 28.8524 25.4951 28.8524C23.641 28.8524 22.1377 27.3492 22.1377 25.495C22.1377 23.6409 23.641 22.1377 25.4951 22.1377Z" fill="#F4A45D"/>
<path id="Vector_4" d="M40.6033 28.8525H31.0402L28.8525 31.0403V33.0493H40.6033V28.8525ZM30.9508 31.7902C30.4871 31.7902 30.1115 31.4146 30.1115 30.9509C30.1115 30.4872 30.4871 30.1116 30.9508 30.1116C31.4146 30.1116 31.7902 30.4872 31.7902 30.9509C31.7902 31.4146 31.4146 31.7902 30.9508 31.7902ZM34.3082 31.7902C33.8445 31.7902 33.4689 31.4146 33.4689 30.9509C33.4689 30.4872 33.8445 30.1116 34.3082 30.1116C34.772 30.1116 35.1476 30.4872 35.1476 30.9509C35.1476 31.4146 34.772 31.7902 34.3082 31.7902ZM39.764 32.2099H38.9246V31.3706H39.764V32.2099ZM39.764 30.5312H38.9246V29.6919H39.764V30.5312Z" fill="#F4A45D"/>
<path id="Vector_5" d="M31.7901 27.0802L30.6142 27.3794C30.5643 27.5129 30.5085 27.6476 30.4464 27.7806L30.5844 28.0131H40.6033V24.2361C40.6033 24.0044 40.4148 23.8164 40.1836 23.8164H31.4229L31.7901 23.91V27.0802ZM38.5049 25.0754C38.9686 25.0754 39.3442 25.451 39.3442 25.9148C39.3442 26.3785 38.9686 26.7541 38.5049 26.7541C38.0412 26.7541 37.6655 26.3785 37.6655 25.9148C37.6655 25.451 38.0412 25.0754 38.5049 25.0754ZM35.1475 25.0754C35.6113 25.0754 35.9869 25.451 35.9869 25.9148C35.9869 26.3785 35.6113 26.7541 35.1475 26.7541C34.6838 26.7541 34.3082 26.3785 34.3082 25.9148C34.3082 25.451 34.6838 25.0754 35.1475 25.0754Z" fill="#F4A45D"/>
<path id="Vector_6" d="M25.4951 27.1738C26.4222 27.1738 27.1738 26.4222 27.1738 25.4951C27.1738 24.568 26.4222 23.8164 25.4951 23.8164C24.568 23.8164 23.8164 24.568 23.8164 25.4951C23.8164 26.4222 24.568 27.1738 25.4951 27.1738Z" fill="#F4A45D"/>
<path id="Vector_7" d="M22.5574 34.728C21.8632 34.728 21.2984 35.2929 21.2984 35.987C21.2984 36.6812 21.8632 37.2461 22.5574 37.2461C23.1038 37.2461 23.5654 36.894 23.7392 36.4067H28.0131V35.5674H23.7392C23.5654 35.0801 23.1038 34.728 22.5574 34.728Z" fill="#F4A45D"/>
<path id="Vector_8" d="M21.6408 33.469H28.0131V32.6296H21.6408C21.4671 32.1424 21.0054 31.7903 20.459 31.7903C19.7649 31.7903 19.2 32.3552 19.2 33.0493C19.2 33.7434 19.7649 34.3083 20.459 34.3083C21.0054 34.3083 21.4671 33.9562 21.6408 33.469Z" fill="#F4A45D"/>
<path id="Vector_9" d="M38.5049 21.6408V22.977H39.3443V21.6408C39.8315 21.467 40.1836 21.0054 40.1836 20.459C40.1836 19.7648 39.6187 19.2 38.9246 19.2C38.2305 19.2 37.6656 19.7648 37.6656 20.459C37.6656 21.0054 38.0177 21.467 38.5049 21.6408Z" fill="#F4A45D"/>
<path id="Vector_10" d="M34.3082 21.6408V22.977H35.1475V21.6408C35.6348 21.467 35.9869 21.0054 35.9869 20.459C35.9869 19.7648 35.422 19.2 34.7279 19.2C34.0337 19.2 33.4688 19.7648 33.4688 20.459C33.4688 21.0054 33.8209 21.467 34.3082 21.6408Z" fill="#F4A45D"/>
</g>
</g>
</svg>
