<svg width="32" height="32" viewBox="0 0 32 32" fill="none" xmlns="http://www.w3.org/2000/svg">
<g id="Group 29">
<path id="BG" opacity="0.1" fill-rule="evenodd" clip-rule="evenodd" d="M0 16C0 7.16344 7.16344 0 16 0C24.8366 0 32 7.16344 32 16C32 24.8366 24.8366 32 16 32C7.16344 32 0 24.8366 0 16Z" fill="white"/>
<path id="Path" fill-rule="evenodd" clip-rule="evenodd" d="M15.5208 13.405L15.5544 13.9586L14.9948 13.8908C12.9579 13.631 11.1784 12.7497 9.66756 11.2695L8.92891 10.5351L8.73865 11.0775C8.33575 12.2864 8.59316 13.5632 9.43253 14.4219C9.8802 14.8964 9.77948 14.9642 9.00725 14.6818C8.73865 14.5914 8.50363 14.5236 8.48124 14.5575C8.4029 14.6366 8.6715 15.6647 8.88414 16.0715C9.17513 16.6364 9.76828 17.1901 10.4174 17.5177L10.9658 17.7776L10.3167 17.7889C9.68994 17.7889 9.66756 17.8002 9.73471 18.0375C9.95854 18.7719 10.8427 19.5515 11.8276 19.8905L12.5214 20.1277L11.9171 20.4893C11.0218 21.009 9.96973 21.3028 8.91772 21.3254C8.41409 21.3367 8 21.3819 8 21.4158C8 21.5288 9.36538 22.1615 10.16 22.4101C12.5438 23.1445 15.3753 22.8281 17.5017 21.574C19.0126 20.6814 20.5235 18.9075 21.2286 17.1901C21.6091 16.2749 21.9896 14.6027 21.9896 13.8005C21.9896 13.2807 22.0232 13.2129 22.6499 12.5915C23.0192 12.2299 23.3662 11.8345 23.4333 11.7215C23.5452 11.5068 23.534 11.5068 22.9633 11.6989C22.012 12.0379 21.8777 11.9927 22.3477 11.4842C22.6947 11.1227 23.1088 10.4673 23.1088 10.2753C23.1088 10.2414 22.9409 10.2979 22.7506 10.3995C22.5492 10.5125 22.1015 10.682 21.7658 10.7837L21.1614 10.9758L20.613 10.6029C20.3108 10.3995 19.8856 10.1736 19.6617 10.1058C19.0909 9.9476 18.218 9.9702 17.7032 10.151C16.3042 10.6594 15.4201 11.9701 15.5208 13.405Z" fill="white"/>
</g>
</svg>
