<svg width="32" height="32" viewBox="0 0 32 32" fill="none" xmlns="http://www.w3.org/2000/svg">
<g id="Group 27">
<path id="BG" opacity="0.1" fill-rule="evenodd" clip-rule="evenodd" d="M0 16C0 7.16344 7.16344 0 16 0C24.8366 0 32 7.16344 32 16C32 24.8366 24.8366 32 16 32C7.16344 32 0 24.8366 0 16Z" fill="white"/>
<path id="Path" fill-rule="evenodd" clip-rule="evenodd" d="M16.0008 7C13.6833 7 13.3924 7.01013 12.4822 7.05156C11.5737 7.09316 10.9536 7.23698 10.4111 7.448C9.84981 7.66596 9.37372 7.95752 8.8994 8.43201C8.42473 8.90633 8.13317 9.38242 7.9145 9.9435C7.70294 10.4863 7.55894 11.1065 7.51805 12.0146C7.47734 12.9249 7.46667 13.2159 7.46667 15.5334C7.46667 17.851 7.47699 18.1409 7.51823 19.0511C7.56001 19.9596 7.70383 20.5797 7.91468 21.1223C8.13282 21.6835 8.42437 22.1596 8.89887 22.6339C9.37301 23.1086 9.8491 23.4009 10.41 23.6188C10.9529 23.8299 11.5732 23.9737 12.4815 24.0153C13.3917 24.0567 13.6824 24.0668 15.9997 24.0668C18.3175 24.0668 18.6074 24.0567 19.5176 24.0153C20.4261 23.9737 21.0469 23.8299 21.5898 23.6188C22.1509 23.4009 22.6263 23.1086 23.1004 22.6339C23.5751 22.1596 23.8667 21.6835 24.0853 21.1225C24.2951 20.5797 24.4391 19.9594 24.4818 19.0513C24.5227 18.1411 24.5333 17.851 24.5333 15.5334C24.5333 13.2159 24.5227 12.925 24.4818 12.0148C24.4391 11.1064 24.2951 10.4863 24.0853 9.94368C23.8667 9.38242 23.5751 8.90633 23.1004 8.43201C22.6258 7.95734 22.1511 7.66578 21.5893 7.448C21.0453 7.23698 20.4249 7.09316 19.5164 7.05156C18.6062 7.01013 18.3164 7 15.9981 7H16.0008ZM15.2353 8.53777C15.4625 8.53741 15.716 8.53777 16.0008 8.53777C18.2792 8.53777 18.5492 8.54595 19.449 8.58684C20.281 8.62488 20.7326 8.76391 21.0334 8.88071C21.4316 9.03537 21.7155 9.22027 22.014 9.51894C22.3127 9.81761 22.4976 10.1021 22.6526 10.5003C22.7694 10.8007 22.9086 11.2523 22.9464 12.0843C22.9873 12.9839 22.9962 13.2541 22.9962 15.5314C22.9962 17.8088 22.9873 18.079 22.9464 18.9786C22.9084 19.8106 22.7694 20.2622 22.6526 20.5626C22.4979 20.9608 22.3127 21.2444 22.014 21.5429C21.7153 21.8416 21.4318 22.0264 21.0334 22.1811C20.7329 22.2984 20.281 22.4371 19.449 22.4752C18.5494 22.5161 18.2792 22.5249 16.0008 22.5249C13.7222 22.5249 13.4521 22.5161 12.5526 22.4752C11.7205 22.4368 11.269 22.2977 10.968 22.1809C10.5698 22.0263 10.2853 21.8414 9.98666 21.5427C9.68799 21.244 9.5031 20.9603 9.34808 20.5619C9.23128 20.2614 9.09208 19.8099 9.05421 18.9779C9.01332 18.0783 9.00514 17.8081 9.00514 15.5293C9.00514 13.2505 9.01332 12.9817 9.05421 12.0822C9.09226 11.2502 9.23128 10.7986 9.34808 10.4978C9.50275 10.0996 9.68799 9.81512 9.98666 9.51645C10.2853 9.21778 10.5698 9.03289 10.968 8.87786C11.2688 8.76053 11.7205 8.62186 12.5526 8.58364C13.3398 8.54808 13.6448 8.53741 15.2353 8.53564V8.53777ZM20.5558 9.95468C19.9905 9.95468 19.5318 10.4128 19.5318 10.9783C19.5318 11.5437 19.9905 12.0023 20.5558 12.0023C21.1212 12.0023 21.5799 11.5437 21.5799 10.9783C21.5799 10.413 21.1212 9.95468 20.5558 9.95468ZM16.0008 11.1511C13.5807 11.1511 11.6186 13.1133 11.6186 15.5334C11.6186 17.9535 13.5807 19.9148 16.0008 19.9148C18.4209 19.9148 20.3824 17.9535 20.3824 15.5334C20.3824 13.1133 18.4209 11.1511 16.0008 11.1511ZM16.0008 12.6889C17.5717 12.6889 18.8453 13.9624 18.8453 15.5334C18.8453 17.1043 17.5717 18.3779 16.0008 18.3779C14.4298 18.3779 13.1563 17.1043 13.1563 15.5334C13.1563 13.9624 14.4298 12.6889 16.0008 12.6889Z" fill="white"/>
</g>
</svg>
