<svg width="32" height="32" viewBox="0 0 32 32" fill="none" xmlns="http://www.w3.org/2000/svg">
<g id="Group 30">
<path id="BG" opacity="0.1" fill-rule="evenodd" clip-rule="evenodd" d="M0 16C0 7.16344 7.16344 0 16 0C24.8366 0 32 7.16344 32 16C32 24.8366 24.8366 32 16 32C7.16344 32 0 24.8366 0 16Z" fill="white"/>
<path id="Path" fill-rule="evenodd" clip-rule="evenodd" d="M22.6679 10.3662C23.4022 10.5677 23.9805 11.1615 24.1768 11.9155C24.5335 13.282 24.5335 16.1333 24.5335 16.1333C24.5335 16.1333 24.5335 18.9845 24.1768 20.3512C23.9805 21.1052 23.4022 21.6989 22.6679 21.9005C21.3371 22.2667 16.0001 22.2667 16.0001 22.2667C16.0001 22.2667 10.6632 22.2667 9.3323 21.9005C8.59795 21.6989 8.01962 21.1052 7.82335 20.3512C7.4668 18.9845 7.4668 16.1333 7.4668 16.1333C7.4668 16.1333 7.4668 13.282 7.82335 11.9155C8.01962 11.1615 8.59795 10.5677 9.3323 10.3662C10.6632 10 16.0001 10 16.0001 10C16.0001 10 21.3371 10 22.6679 10.3662ZM14.4001 13.7333V19.0666L18.6668 16.4L14.4001 13.7333Z" fill="white"/>
</g>
</svg>
