<svg width="32" height="32" viewBox="0 0 32 32" fill="none" xmlns="http://www.w3.org/2000/svg">
<g id="Group 28">
<path id="BG" opacity="0.1" fill-rule="evenodd" clip-rule="evenodd" d="M0 16C0 7.16344 7.16344 0 16 0C24.8366 0 32 7.16344 32 16C32 24.8366 24.8366 32 16 32C7.16344 32 0 24.8366 0 16Z" fill="white"/>
<path id="Path" fill-rule="evenodd" clip-rule="evenodd" d="M24.5333 15.5215C24.5333 16.0986 24.4746 16.6749 24.3592 17.2366C24.2467 17.785 24.08 18.3234 23.8617 18.8381C23.6483 19.3437 23.3837 19.8309 23.0745 20.2853C22.77 20.7368 22.4191 21.1603 22.0337 21.5465C21.6474 21.9309 21.2224 22.2808 20.7711 22.5867C20.3152 22.8937 19.8273 23.1579 19.3215 23.3723C18.806 23.5894 18.2664 23.7559 17.7184 23.8682C17.1559 23.9839 16.5776 24.043 15.9996 24.043C15.4213 24.043 14.8429 23.9839 14.2812 23.8682C13.7324 23.7559 13.1928 23.5894 12.6778 23.3723C12.1719 23.1579 11.6836 22.8937 11.2277 22.5867C10.7764 22.2808 10.3514 21.9309 9.96599 21.5465C9.58015 21.1603 9.22928 20.7368 8.92427 20.2853C8.61675 19.8309 8.35172 19.3437 8.13755 18.8381C7.91918 18.3234 7.75211 17.785 7.63919 17.2366C7.52503 16.6749 7.46667 16.0986 7.46667 15.5215C7.46667 14.944 7.52499 14.3665 7.63922 13.8059C7.75215 13.2575 7.91922 12.7183 8.13759 12.2044C8.35175 11.6985 8.61678 11.2108 8.9243 10.7565C9.22931 10.3046 9.58018 9.88182 9.96602 9.49527C10.3515 9.11079 10.7765 8.76173 11.2278 8.45632C11.6836 8.14798 12.172 7.8838 12.6778 7.66908C13.1929 7.45142 13.7324 7.28459 14.2812 7.1731C14.8429 7.05827 15.4213 7 15.9997 7C16.5776 7 17.1559 7.05827 17.7185 7.1731C18.2664 7.28463 18.806 7.45145 19.3215 7.66908C19.8273 7.88376 20.3153 8.14798 20.7711 8.45632C21.2224 8.76173 21.6475 9.11079 22.0337 9.49527C22.4191 9.88182 22.77 10.3046 23.0746 10.7565C23.3837 11.2108 23.6483 11.6985 23.8617 12.2044C24.08 12.7183 24.2467 13.2575 24.3592 13.8059C24.4746 14.3665 24.5333 14.944 24.5333 15.5215ZM12.8903 8.93938C10.8581 9.89765 9.34131 11.7675 8.86836 14.0211C9.06048 14.0227 12.0973 14.061 15.5962 13.1327C14.3349 10.895 12.9874 9.06882 12.8903 8.93938ZM16.2 14.2533C12.4477 15.375 8.84711 15.2943 8.71795 15.2893C8.71585 15.3675 8.71211 15.4433 8.71211 15.5215C8.71211 17.3909 9.41839 19.0952 10.5793 20.3839C10.5768 20.3801 12.5711 16.8471 16.5038 15.5773C16.5988 15.5456 16.6955 15.5173 16.7913 15.4899C16.6084 15.0763 16.4087 14.6619 16.2 14.2533ZM20.8124 10.0599C19.5293 8.93022 17.8447 8.24496 15.9996 8.24496C15.4075 8.24496 14.8329 8.31654 14.2824 8.44884C14.3916 8.59533 15.7604 10.4086 17.0067 12.6937C19.7565 11.6644 20.7944 10.0865 20.8124 10.0599ZM17.288 16.6957C17.2718 16.7011 17.2556 16.7057 17.2397 16.7115C12.94 18.2083 11.5358 21.2248 11.5206 21.2577C12.7578 22.2184 14.3096 22.798 15.9996 22.798C17.0088 22.798 17.9701 22.5929 18.8448 22.2213C18.7368 21.5856 18.3135 19.357 17.288 16.6957ZM20.0719 21.5564C21.7082 20.4538 22.8703 18.7029 23.1945 16.6749C23.0445 16.6266 21.0057 15.9821 18.6535 16.3586C19.6093 18.9817 19.9977 21.1179 20.0719 21.5564ZM17.5676 13.7781C17.7368 14.1251 17.9006 14.4783 18.0518 14.8333C18.1056 14.9606 18.1581 15.0854 18.2093 15.2103C20.7128 14.8957 23.1792 15.4249 23.2846 15.4466C23.2679 13.7215 22.65 12.1383 21.6275 10.8988C21.6137 10.9183 20.4449 12.6047 17.5676 13.7781Z" fill="white"/>
</g>
</svg>
