<svg width="26" height="26" viewBox="0 0 26 26" fill="none" xmlns="http://www.w3.org/2000/svg">
<g id="hierarchy 1" clip-path="url(#clip0_124_35)">
<path id="Vector" d="M13 4.46662C14.1782 4.46662 15.1333 3.51149 15.1333 2.33328C15.1333 1.15508 14.1782 0.199951 13 0.199951C11.8218 0.199951 10.8667 1.15508 10.8667 2.33328C10.8667 3.51149 11.8218 4.46662 13 4.46662Z" fill="#5526B3"/>
<path id="Vector_2" d="M17.2667 8.46678C17.2667 6.84865 15.9515 5.53345 14.3333 5.53345H11.6667C10.0485 5.53345 8.73333 6.84865 8.73333 8.46678V9.00011C8.73333 9.44171 9.09173 9.80011 9.53333 9.80011H16.4667C16.9083 9.80011 17.2667 9.44171 17.2667 9.00011V8.46678Z" fill="#5526B3"/>
<path id="Vector_3" d="M4.46666 20.4666C5.64487 20.4666 6.59999 19.5115 6.59999 18.3333C6.59999 17.1551 5.64487 16.2 4.46666 16.2C3.28845 16.2 2.33333 17.1551 2.33333 18.3333C2.33333 19.5115 3.28845 20.4666 4.46666 20.4666Z" fill="#5526B3"/>
<path id="Vector_4" d="M5.8 21.5332H3.13333C1.5152 21.5332 0.199997 22.8484 0.199997 24.4665V24.9999C0.199997 25.4415 0.558397 25.7999 0.999997 25.7999H7.93333C8.37493 25.7999 8.73333 25.4415 8.73333 24.9999V24.4665C8.73333 22.8484 7.41813 21.5332 5.8 21.5332Z" fill="#5526B3"/>
<path id="Vector_5" d="M21.5333 20.4666C22.7115 20.4666 23.6667 19.5115 23.6667 18.3333C23.6667 17.1551 22.7115 16.2 21.5333 16.2C20.3551 16.2 19.4 17.1551 19.4 18.3333C19.4 19.5115 20.3551 20.4666 21.5333 20.4666Z" fill="#5526B3"/>
<path id="Vector_6" d="M22.8667 21.5332H20.2C18.5819 21.5332 17.2667 22.8484 17.2667 24.4665V24.9999C17.2667 25.4415 17.6251 25.7999 18.0667 25.7999H25C25.4416 25.7999 25.8 25.4415 25.8 24.9999V24.4665C25.8 22.8484 24.4848 21.5332 22.8667 21.5332Z" fill="#5526B3"/>
<path id="Vector_7" d="M21.5333 15.1332C21.0917 15.1332 20.7333 14.7748 20.7333 14.3332V14.0666H5.26666V14.3332C5.26666 14.7748 4.90826 15.1332 4.46666 15.1332C4.02506 15.1332 3.66666 14.7748 3.66666 14.3332V13.2666C3.66666 12.825 4.02506 12.4666 4.46666 12.4666H21.5333C21.9749 12.4666 22.3333 12.825 22.3333 13.2666V14.3332C22.3333 14.7748 21.9749 15.1332 21.5333 15.1332Z" fill="#5526B3"/>
<path id="Vector_8" d="M13 14.0667C12.5584 14.0667 12.2 13.7083 12.2 13.2667V11.6667C12.2 11.2251 12.5584 10.8667 13 10.8667C13.4416 10.8667 13.8 11.2251 13.8 11.6667V13.2667C13.8 13.7083 13.4416 14.0667 13 14.0667Z" fill="#5526B3"/>
</g>
<defs>
<clipPath id="clip0_124_35">
<rect width="25.6" height="25.6" fill="white" transform="translate(0.199997 0.199951)"/>
</clipPath>
</defs>
</svg>
