<svg width="26" height="26" viewBox="0 0 26 26" fill="none" xmlns="http://www.w3.org/2000/svg">
<g id="message 1" clip-path="url(#clip0_124_17)">
<g id="Group">
<g id="Group_2">
<path id="Vector" d="M17.0776 21.1614C18.2119 21.1614 19.1314 20.2419 19.1314 19.1076V10.7386C19.1314 9.60431 18.2119 8.68481 17.0776 8.68481H2.62876C1.49451 8.68481 0.575012 9.60431 0.575012 10.7386V19.1076C0.575012 20.2419 1.49451 21.1614 2.62876 21.1614H2.82306C3.00076 21.1614 3.13511 21.3221 3.10366 21.497L2.59766 24.3066C2.55961 24.5179 2.81361 24.655 2.96931 24.5071L6.30131 21.3442C6.42501 21.2268 6.58906 21.1613 6.75961 21.1613H19.8197H19.8199H17.0776V21.1614Z" fill="#FFA1BC"/>
<path id="Vector_2" d="M17.0776 8.68481H2.62876C1.49451 8.68481 0.575012 9.60432 0.575012 10.7386V19.1076C0.575012 20.2419 1.49451 21.1614 2.62876 21.1614H2.86106C2.95721 21.1614 3.04941 21.1997 3.11716 21.2679L3.31461 21.4666H5.96981L6.10061 21.3546C6.24626 21.2299 6.43171 21.1614 6.62351 21.1614H17.0776C18.2119 21.1614 19.1314 20.2419 19.1314 19.1076V10.7386C19.1314 9.60432 18.2119 8.68481 17.0776 8.68481Z" fill="#F9CDD9"/>
<g id="Group_3">
<path id="Vector_3" d="M2.82304 21.1612C3.00074 21.1612 3.13514 21.3219 3.10364 21.4968L2.59764 24.3064C2.55959 24.5177 2.81359 24.6548 2.96929 24.5069L6.30129 21.344C6.42499 21.2266 6.58899 21.1612 6.75954 21.1611H6.75959H2.82304V21.1612Z" fill="#F9CDD9"/>
<path id="Vector_4" d="M19.8195 8.68481H16.6397C17.774 8.68481 18.6935 9.60431 18.6935 10.7386V19.1076C18.6935 20.2419 17.774 21.1614 16.6397 21.1614H19.8195C20.9538 21.1614 21.8733 20.2419 21.8733 19.1076V10.7386C21.8733 9.60431 20.9538 8.68481 19.8195 8.68481Z" fill="#F9CDD9"/>
</g>
<path id="Vector_5" d="M20.6002 13.9079C21.7345 13.9079 22.654 12.9884 22.654 11.8542V3.48515C22.654 2.3509 21.7345 1.4314 20.6002 1.4314H6.18046C5.04621 1.4314 4.12671 2.3509 4.12671 3.48515V11.8542C4.12671 12.9884 5.04621 13.9079 6.18046 13.9079H6.37476C6.55246 13.9079 6.68681 14.0687 6.65536 14.2435L6.14936 17.0532C6.11131 17.2645 6.36531 17.4015 6.52101 17.2537L9.85301 14.0907C9.97671 13.9733 10.1408 13.9078 10.3113 13.9078H20.6002V13.9079Z" fill="#F65D88"/>
<g id="Group_4">
<path id="Vector_6" d="M23.3713 1.4314H20.2056C21.3398 1.4314 22.2593 2.3509 22.2593 3.48515V11.8542C22.2593 12.9884 21.3398 13.9079 20.2056 13.9079H23.3713C24.5055 13.9079 25.425 12.9884 25.425 11.8542V3.4852C25.425 2.3509 24.5055 1.4314 23.3713 1.4314Z" fill="#F65D88"/>
<path id="Vector_7" d="M6.65531 14.2437L6.14931 17.0533C6.11126 17.2646 6.36526 17.4017 6.52096 17.2538L9.85297 14.0909C9.97667 13.9735 10.1407 13.908 10.3113 13.908H6.37481C6.55241 13.9081 6.68681 14.0688 6.65531 14.2437Z" fill="#F65D88"/>
</g>
</g>
<g id="Group_5">
<path id="Vector_8" d="M22.1316 4.37573H7.62027C7.41312 4.37573 7.24527 4.54358 7.24527 4.75073C7.24527 4.95788 7.41312 5.12573 7.62027 5.12573H22.1316C22.3387 5.12573 22.5066 4.95788 22.5066 4.75073C22.5066 4.54358 22.3387 4.37573 22.1316 4.37573Z" fill="#FFEFF3"/>
<path id="Vector_9" d="M22.1316 7.29468H7.62027C7.41312 7.29468 7.24527 7.46253 7.24527 7.66968C7.24527 7.87683 7.41312 8.04468 7.62027 8.04468H22.1316C22.3387 8.04468 22.5066 7.87683 22.5066 7.66968C22.5066 7.46253 22.3387 7.29468 22.1316 7.29468Z" fill="#FFEFF3"/>
<path id="Vector_10" d="M14.876 10.2136H7.62027C7.41312 10.2136 7.24527 10.3815 7.24527 10.5886C7.24527 10.7958 7.41312 10.9636 7.62027 10.9636H14.8759C15.0831 10.9636 15.2509 10.7958 15.2509 10.5886C15.2509 10.3815 15.0831 10.2136 14.876 10.2136Z" fill="#FFEFF3"/>
<path id="Vector_11" d="M23.3713 1.0564H6.18043C4.84123 1.0564 3.75168 2.14595 3.75168 3.48515V11.8542C3.75168 13.1934 4.84123 14.2829 6.18043 14.2829H6.26718L5.78028 16.9867C5.73433 17.2414 5.85653 17.4952 6.08433 17.6181C6.31108 17.7405 6.59048 17.7048 6.77913 17.5257L10.1111 14.3628C10.1654 14.3113 10.2365 14.2829 10.3113 14.2829H23.3713C24.7105 14.2829 25.8 13.1933 25.8 11.8541V3.48515C25.8 2.14595 24.7105 1.0564 23.3713 1.0564ZM25.05 11.8542C25.05 12.7799 24.2969 13.5329 23.3713 13.5329H10.3113C10.0435 13.5329 9.78908 13.6344 9.59483 13.8188L6.60108 16.6607L7.02443 14.31C7.09743 13.9048 6.78578 13.5329 6.37483 13.5329H6.18048C5.25478 13.5329 4.50173 12.7798 4.50173 11.8542V3.48515C4.50173 2.55945 5.25483 1.8064 6.18048 1.8064H23.3713C24.2969 1.8064 25.05 2.55945 25.05 3.48515V11.8542Z" fill="#F65D88"/>
<path id="Vector_12" d="M21.8734 15.286C21.6662 15.286 21.4984 15.4539 21.4984 15.661V19.1075C21.4984 20.0332 20.7453 20.7863 19.8196 20.7863H6.75946C6.49171 20.7863 6.23726 20.8878 6.04306 21.0722L3.04936 23.914L3.47266 21.5635C3.54561 21.1591 3.23496 20.7863 2.82306 20.7863H2.62876C1.70311 20.7863 0.950012 20.0332 0.950012 19.1075V10.7385C0.950012 9.87974 1.59261 9.16234 2.44476 9.06969C2.65066 9.04734 2.79941 8.86229 2.77706 8.65634C2.75471 8.45049 2.57006 8.30144 2.36371 8.32404C1.13021 8.45819 0.200012 9.49614 0.200012 10.7385V19.1075C0.200012 20.4467 1.28956 21.5363 2.62876 21.5363H2.71546L2.22856 24.2401C2.18266 24.4949 2.30491 24.7486 2.53276 24.8715C2.75951 24.9938 3.03886 24.9581 3.22741 24.779L6.55946 21.6161C6.61371 21.5646 6.68476 21.5362 6.75956 21.5362H19.8196C21.1588 21.5362 22.2484 20.4467 22.2484 19.1075V15.661C22.2484 15.4539 22.0805 15.286 21.8734 15.286Z" fill="#F65D88"/>
</g>
</g>
</g>
<defs>
<clipPath id="clip0_124_17">
<rect width="25.6" height="25.6" fill="white" transform="translate(0.200012 0.199951)"/>
</clipPath>
</defs>
</svg>
