<svg width="20" height="20" viewBox="0 0 20 20" fill="none" xmlns="http://www.w3.org/2000/svg">
<g id="report 1" clip-path="url(#clip0_323_124)">
<path id="Vector" d="M3.25 9.3999C3.70381 9.3999 4.11455 9.21782 4.41806 8.92544L6.08315 9.75791C6.0748 9.82573 6.0625 9.89238 6.0625 9.9624C6.0625 10.8929 6.81953 11.6499 7.75 11.6499C8.68047 11.6499 9.4375 10.8929 9.4375 9.9624C9.4375 9.70269 9.37363 9.45952 9.26831 9.2395L11.5271 6.98071C11.7471 7.08604 11.9903 7.1499 12.25 7.1499C13.1805 7.1499 13.9375 6.39287 13.9375 5.4624C13.9375 5.28721 13.9031 5.12153 13.8533 4.9626L15.8159 3.49102C16.0836 3.66987 16.4046 3.7749 16.75 3.7749C17.6805 3.7749 18.4375 3.01787 18.4375 2.0874C18.4375 1.15693 17.6805 0.399902 16.75 0.399902C15.8195 0.399902 15.0625 1.15693 15.0625 2.0874C15.0625 2.2626 15.0969 2.42827 15.1467 2.58721L13.1841 4.05879C12.9164 3.87993 12.5954 3.7749 12.25 3.7749C11.3195 3.7749 10.5625 4.53193 10.5625 5.4624C10.5625 5.72212 10.6264 5.96528 10.7317 6.1853L8.4729 8.44409C8.25288 8.33877 8.00971 8.2749 7.75 8.2749C7.29619 8.2749 6.88545 8.45698 6.58193 8.74937L4.91684 7.91689C4.92519 7.84907 4.9375 7.78242 4.9375 7.7124C4.9375 6.78193 4.18047 6.0249 3.25 6.0249C2.31953 6.0249 1.5625 6.78193 1.5625 7.7124C1.5625 8.64287 2.31953 9.3999 3.25 9.3999Z" fill="#F49C4E"/>
<path id="Vector_2" d="M19.0375 18.4749H18.4375V6.5874C18.4375 6.27656 18.1858 6.0249 17.875 6.0249H15.625C15.3142 6.0249 15.0625 6.27656 15.0625 6.5874V18.4749H13.9375V9.9624C13.9375 9.65156 13.6858 9.3999 13.375 9.3999H11.125C10.8142 9.3999 10.5625 9.65156 10.5625 9.9624V18.4749H9.4375V14.4624C9.4375 14.1516 9.18584 13.8999 8.875 13.8999H6.625C6.31416 13.8999 6.0625 14.1516 6.0625 14.4624V18.4749H4.9375V12.2124C4.9375 11.9016 4.68584 11.6499 4.375 11.6499H2.125C1.81416 11.6499 1.5625 11.9016 1.5625 12.2124V18.4749H0.962498C0.651658 18.4749 0.399998 18.7266 0.399998 19.0374C0.399998 19.3482 0.651658 19.5999 0.962498 19.5999H19.0375C19.3483 19.5999 19.6 19.3482 19.6 19.0374C19.6 18.7266 19.3483 18.4749 19.0375 18.4749Z" fill="#F49C4E"/>
</g>
<defs>
<clipPath id="clip0_323_124">
<rect width="19.2" height="19.2" fill="white" transform="translate(0.399998 0.399902)"/>
</clipPath>
</defs>
</svg>
