<svg width="13" height="13" viewBox="0 0 13 13" fill="none" xmlns="http://www.w3.org/2000/svg">
<path id="Vector" d="M11.058 1.90963C9.99661 0.841282 8.59572 0.176736 7.09685 0.0305571C5.59799 -0.115622 4.09509 0.265726 2.84726 1.10886C1.59942 1.95199 0.684853 3.20407 0.261221 4.64923C-0.162411 6.09439 -0.0685583 7.64207 0.5266 9.02546C0.588631 9.15404 0.608984 9.29877 0.58482 9.43947L0.0155539 12.1758C-0.00637828 12.2807 -0.00189969 12.3895 0.0285872 12.4922C0.0590741 12.595 0.114614 12.6885 0.190215 12.7645C0.25219 12.826 0.325981 12.8744 0.407141 12.9066C0.4883 12.9389 0.575147 12.9543 0.662447 12.9521H0.791826L3.56053 12.3958C3.70125 12.3789 3.84395 12.3989 3.97454 12.454C5.35792 13.0492 6.90561 13.143 8.35077 12.7194C9.79593 12.2957 11.048 11.3812 11.8911 10.1333C12.7343 8.8855 13.1156 7.3826 12.9694 5.88374C12.8233 4.38488 12.1587 2.98398 11.0904 1.92256L11.058 1.90963ZM3.89692 7.13006C3.76897 7.13006 3.6439 7.09212 3.53752 7.02104C3.43114 6.94996 3.34823 6.84893 3.29926 6.73072C3.2503 6.61252 3.23749 6.48245 3.26245 6.35696C3.28741 6.23148 3.34902 6.11621 3.43949 6.02574C3.52996 5.93527 3.64523 5.87366 3.77071 5.8487C3.8962 5.82374 4.02627 5.83655 4.14447 5.88551C4.26268 5.93447 4.36371 6.01739 4.43479 6.12377C4.50587 6.23015 4.54381 6.35522 4.54381 6.48316C4.54381 6.65473 4.47565 6.81927 4.35434 6.94059C4.23302 7.0619 4.06848 7.13006 3.89692 7.13006ZM6.48449 7.13006C6.35655 7.13006 6.23148 7.09212 6.12509 7.02104C6.01871 6.94996 5.9358 6.84893 5.88684 6.73072C5.83788 6.61252 5.82507 6.48245 5.85003 6.35696C5.87499 6.23148 5.9366 6.11621 6.02707 6.02574C6.11754 5.93527 6.2328 5.87366 6.35829 5.8487C6.48377 5.82374 6.61384 5.83655 6.73205 5.88551C6.85025 5.93447 6.95128 6.01739 7.02236 6.12377C7.09344 6.23015 7.13138 6.35522 7.13138 6.48316C7.13138 6.65473 7.06323 6.81927 6.94191 6.94059C6.8206 7.0619 6.65606 7.13006 6.48449 7.13006ZM9.07206 7.13006C8.94412 7.13006 8.81905 7.09212 8.71267 7.02104C8.60629 6.94996 8.52337 6.84893 8.47441 6.73072C8.42545 6.61252 8.41264 6.48245 8.4376 6.35696C8.46256 6.23148 8.52417 6.11621 8.61464 6.02574C8.70511 5.93527 8.82038 5.87366 8.94586 5.8487C9.07135 5.82374 9.20142 5.83655 9.31962 5.88551C9.43782 5.93447 9.53886 6.01739 9.60994 6.12377C9.68102 6.23015 9.71896 6.35522 9.71896 6.48316C9.71896 6.65473 9.6508 6.81927 9.52949 6.94059C9.40817 7.0619 9.24363 7.13006 9.07206 7.13006Z" fill="#F4CC4E"/>
</svg>
